<?xml version="1.0" encoding="utf-8"?>
<!-- Generator: Adobe Illustrator 22.0.1, SVG Export Plug-In . SVG Version: 6.00 Build 0)  -->
<svg version="1.1" id="Layer_1" xmlns="http://www.w3.org/2000/svg" xmlns:xlink="http://www.w3.org/1999/xlink" x="0px" y="0px"
	 viewBox="0 0 327.9 104.6" style="enable-background:new 0 0 327.9 104.6;" xml:space="preserve">
<style type="text/css">
	.st0{fill:url(#SVGID_1_);}
	.st1{fill:url(#SVGID_2_);}
	.st2{fill:url(#SVGID_3_);}
	.st3{fill:url(#SVGID_4_);}
	.st4{fill:url(#SVGID_5_);}
	.st5{fill:url(#SVGID_6_);}
	.st6{fill:url(#SVGID_7_);}
	.st7{fill:url(#SVGID_8_);}
	.st8{fill:url(#SVGID_9_);}
	.st9{fill:url(#SVGID_10_);}
	.st10{display:none;}
	.st11{display:inline;fill:#0F0F0F;}
	.st12{fill:#FFFFFF;}
</style>
<title>logo-black</title>
<g>
	
		<linearGradient id="SVGID_1_" gradientUnits="userSpaceOnUse" x1="-3.6949" y1="87.9676" x2="45.3528" y2="15.2514" gradientTransform="matrix(1 0 0 -1 0 106)">
		<stop  offset="0" style="stop-color:#2360B1"/>
		<stop  offset="0.25" style="stop-color:#256FBF"/>
		<stop  offset="0.5594" style="stop-color:#2360B1"/>
		<stop  offset="0.8" style="stop-color:#A02D6E"/>
		<stop  offset="0.9" style="stop-color:#F3506F"/>
		<stop  offset="1" style="stop-color:#FCB450"/>
	</linearGradient>
	<path class="st0" d="M27.4,79.9l7.5,14c5.9-3.7,11.7-7.5,17.4-11.5l-23.5-4.3C27.3,77.8,26.7,78.6,27.4,79.9z"/>
	
		<linearGradient id="SVGID_2_" gradientUnits="userSpaceOnUse" x1="-26.2821" y1="72.7324" x2="22.7657" y2="1.614808e-02" gradientTransform="matrix(1 0 0 -1 0 106)">
		<stop  offset="0" style="stop-color:#2360B1"/>
		<stop  offset="0.25" style="stop-color:#256FBF"/>
		<stop  offset="0.5594" style="stop-color:#2360B1"/>
		<stop  offset="0.8" style="stop-color:#A02D6E"/>
		<stop  offset="0.9" style="stop-color:#F3506F"/>
		<stop  offset="1" style="stop-color:#FCB450"/>
	</linearGradient>
	<path class="st1" d="M19.1,76.3c-0.3-0.1-1.4,0.6-2.6,1.5L0.2,89.9c-1.7,12.3,8.6,19.3,22.4,11.2c2.6-1.5,5.2-3,7.8-4.5l-9.5-17.9
		C20.1,77.4,19.4,76.3,19.1,76.3z"/>
	
		<linearGradient id="SVGID_3_" gradientUnits="userSpaceOnUse" x1="31.1673" y1="111.4825" x2="80.2151" y2="38.7662" gradientTransform="matrix(1 0 0 -1 0 106)">
		<stop  offset="0" style="stop-color:#2360B1"/>
		<stop  offset="0.25" style="stop-color:#256FBF"/>
		<stop  offset="0.5594" style="stop-color:#2360B1"/>
		<stop  offset="0.8" style="stop-color:#A02D6E"/>
		<stop  offset="0.9" style="stop-color:#F3506F"/>
		<stop  offset="1" style="stop-color:#FCB450"/>
	</linearGradient>
	<path class="st2" d="M65.6,41.2L56,48.3c-1.2,0.9-1.3,2.4-0.2,3.4L72,67.9c10.1-7.5,11.5-17.7,4.9-26.3l-6.5-1.4
		C68.9,39.9,66.8,40.3,65.6,41.2z"/>
	
		<linearGradient id="SVGID_4_" gradientUnits="userSpaceOnUse" x1="6.2445" y1="94.6719" x2="55.2922" y2="21.9557" gradientTransform="matrix(1 0 0 -1 0 106)">
		<stop  offset="0" style="stop-color:#2360B1"/>
		<stop  offset="0.25" style="stop-color:#256FBF"/>
		<stop  offset="0.5594" style="stop-color:#2360B1"/>
		<stop  offset="0.8" style="stop-color:#A02D6E"/>
		<stop  offset="0.9" style="stop-color:#F3506F"/>
		<stop  offset="1" style="stop-color:#FCB450"/>
	</linearGradient>
	<path class="st3" d="M51.6,54.9c-1-1-2.8-1.1-4-0.3L26.4,70.4c-1.2,0.9-0.9,1.8,0.5,2l31.3,5.8c3.2-2.3,6.4-4.7,9.6-7.2L51.6,54.9z
		"/>
	
		<linearGradient id="SVGID_5_" gradientUnits="userSpaceOnUse" x1="24.0964" y1="106.7132" x2="73.1441" y2="33.997" gradientTransform="matrix(1 0 0 -1 0 106)">
		<stop  offset="0" style="stop-color:#2360B1"/>
		<stop  offset="0.25" style="stop-color:#256FBF"/>
		<stop  offset="0.5594" style="stop-color:#2360B1"/>
		<stop  offset="0.8" style="stop-color:#A02D6E"/>
		<stop  offset="0.9" style="stop-color:#F3506F"/>
		<stop  offset="1" style="stop-color:#FCB450"/>
	</linearGradient>
	<path class="st4" d="M58.4,37.6l-18.7-4.1c-1.4-0.3-1.7,0.3-0.7,1.3l9.4,9.4c1,1,2.8,1.1,4,0.3l6.5-4.8
		C60,38.9,59.8,37.9,58.4,37.6z"/>
	
		<linearGradient id="SVGID_6_" gradientUnits="userSpaceOnUse" x1="4.5736" y1="93.5448" x2="53.6213" y2="20.8285" gradientTransform="matrix(1 0 0 -1 0 106)">
		<stop  offset="0" style="stop-color:#2360B1"/>
		<stop  offset="0.25" style="stop-color:#256FBF"/>
		<stop  offset="0.5594" style="stop-color:#2360B1"/>
		<stop  offset="0.8" style="stop-color:#A02D6E"/>
		<stop  offset="0.9" style="stop-color:#F3506F"/>
		<stop  offset="1" style="stop-color:#FCB450"/>
	</linearGradient>
	<path class="st5" d="M21.5,24.8L1.8,5.1c-2.4,4-2.6,10.1,0.6,17l18.4,4C22.2,26.4,22.5,25.8,21.5,24.8z"/>
	
		<linearGradient id="SVGID_7_" gradientUnits="userSpaceOnUse" x1="-16.5802" y1="79.2765" x2="32.4675" y2="6.5602" gradientTransform="matrix(1 0 0 -1 0 106)">
		<stop  offset="0" style="stop-color:#2360B1"/>
		<stop  offset="0.25" style="stop-color:#256FBF"/>
		<stop  offset="0.5594" style="stop-color:#2360B1"/>
		<stop  offset="0.8" style="stop-color:#A02D6E"/>
		<stop  offset="0.9" style="stop-color:#F3506F"/>
		<stop  offset="1" style="stop-color:#FCB450"/>
	</linearGradient>
	<path class="st6" d="M15.2,68.2L6.6,52c0,5.5-0.4,11-1.2,16.4l8.4,1.6C15.3,70.3,15.9,69.4,15.2,68.2z"/>
	
		<linearGradient id="SVGID_8_" gradientUnits="userSpaceOnUse" x1="24.2243" y1="106.7994" x2="73.272" y2="34.0832" gradientTransform="matrix(1 0 0 -1 0 106)">
		<stop  offset="0" style="stop-color:#2360B1"/>
		<stop  offset="0.25" style="stop-color:#256FBF"/>
		<stop  offset="0.5594" style="stop-color:#2360B1"/>
		<stop  offset="0.8" style="stop-color:#A02D6E"/>
		<stop  offset="0.9" style="stop-color:#F3506F"/>
		<stop  offset="1" style="stop-color:#FCB450"/>
	</linearGradient>
	<path class="st7" d="M35.4,29.3L61.9,35c1.4,0.3,3.5-0.1,4.7-1l0.9-0.7c-14.5-11-28.9-21-45-29.8c-6.9-4.1-12.9-4.3-17-2L31,26.9
		C32,27.9,34,29,35.4,29.3z"/>
	
		<linearGradient id="SVGID_9_" gradientUnits="userSpaceOnUse" x1="-24.6778" y1="73.8145" x2="24.3699" y2="1.0982" gradientTransform="matrix(1 0 0 -1 0 106)">
		<stop  offset="0" style="stop-color:#2360B1"/>
		<stop  offset="0.25" style="stop-color:#256FBF"/>
		<stop  offset="0.5594" style="stop-color:#2360B1"/>
		<stop  offset="0.8" style="stop-color:#A02D6E"/>
		<stop  offset="0.9" style="stop-color:#F3506F"/>
		<stop  offset="1" style="stop-color:#FCB450"/>
	</linearGradient>
	<path class="st8" d="M9,74.4l-4.4-0.8c-0.5,2.7-1.1,5.3-1.9,7.9l6.7-5C10.6,75.6,10.4,74.7,9,74.4z"/>
	
		<linearGradient id="SVGID_10_" gradientUnits="userSpaceOnUse" x1="2.9963" y1="92.481" x2="52.044" y2="19.7647" gradientTransform="matrix(1 0 0 -1 0 106)">
		<stop  offset="0" style="stop-color:#2360B1"/>
		<stop  offset="0.25" style="stop-color:#256FBF"/>
		<stop  offset="0.5594" style="stop-color:#2360B1"/>
		<stop  offset="0.8" style="stop-color:#A02D6E"/>
		<stop  offset="0.9" style="stop-color:#F3506F"/>
		<stop  offset="1" style="stop-color:#FCB450"/>
	</linearGradient>
	<path class="st9" d="M19.8,65.6c0.7,1.3,2.2,1.6,3.3,0.7l20.8-15.5c1.2-0.9,1.3-2.4,0.2-3.4L29.5,32.8c-1-1-3-2.1-4.4-2.4L3.4,25.7
		c1.1,4.5,1.9,9.1,2.5,13.8L19.8,65.6z"/>
</g>
<g class="st10">
	<path class="st11" d="M166.1,51.5c0,14.4-10.7,24.5-26.2,24.5h-20.4V27h20.8C155.5,27,166.1,37,166.1,51.5z M154.8,51.5
		c0-9-6.3-15.3-14.7-15.3h-9.5v30.4h10C148.8,66.7,154.8,60.5,154.8,51.5z"/>
	<path class="st11" d="M223.4,51.5c0,14.1-11.3,25-26.3,25s-26.3-10.8-26.3-25c0-14.3,11.3-24.9,26.3-24.9S223.4,37.3,223.4,51.5z
		 M182.1,51.5c0,8.6,6.9,15.3,15.1,15.3c8.2,0,14.8-6.7,14.8-15.3s-6.7-15.2-14.8-15.2C188.9,36.3,182.1,42.9,182.1,51.5z"/>
	<path class="st11" d="M260.8,76L253,62h-1h-10.2v14h-11.1V27H252c12.8,0,20.1,6.2,20.1,17c0,7.6-3.2,13-9.2,15.8L273.3,76H260.8z
		 M241.7,52.7h10.2c6.1,0,9.6-2.8,9.6-8.4c0-5.5-3.5-8.2-9.6-8.2h-10.2V52.7z"/>
	<path class="st11" d="M318.6,27v9.2h-26.3v10.6H316V56h-23.6v10.9h27V76h-38.1V27H318.6z"/>
</g>
<g>
	<path class="st12" d="M126.9,75.4c-3.6-1-6.5-2.3-8.8-3.9l4-9.1c2.4,1.5,4.9,2.6,7.6,3.4c2.7,0.8,5.4,1.2,8.2,1.2
		c2.8,0,4.9-0.4,6.4-1.2c1.5-0.8,2.2-1.9,2.2-3.3c0-1.3-0.7-2.3-2-3.1c-1.3-0.8-3.9-1.6-7.6-2.4c-4.6-1-8.2-2.1-10.9-3.5
		c-2.6-1.4-4.4-2.9-5.5-4.8c-1-1.8-1.6-4.1-1.6-6.7c0-3,0.9-5.8,2.6-8.2c1.7-2.4,4.1-4.3,7.2-5.7c3.1-1.4,6.7-2.1,10.7-2.1
		c3.5,0,7,0.5,10.3,1.5c3.3,1,5.9,2.3,7.8,3.9l-3.9,9.1c-4.5-3.1-9.2-4.6-14.1-4.6c-2.4,0-4.3,0.5-5.7,1.4c-1.4,0.9-2.2,2.1-2.2,3.6
		c0,0.9,0.3,1.6,0.8,2.2c0.5,0.6,1.5,1.1,2.9,1.6c1.4,0.5,3.5,1.1,6.2,1.6c4.5,1,8,2.2,10.6,3.5c2.6,1.4,4.4,3,5.5,4.8
		c1.1,1.8,1.6,4,1.6,6.5c0,4.9-1.9,8.6-5.6,11.4c-3.7,2.7-9,4.1-15.8,4.1C134.1,76.9,130.5,76.4,126.9,75.4z"/>
	<path class="st12" d="M180.4,73.8c-3.7-2.1-6.6-5-8.6-8.8c-2-3.8-3-8.3-3-13.4c0-5.1,1-9.6,3-13.4c2-3.8,4.9-6.7,8.6-8.8
		c3.7-2.1,8.1-3.1,13.1-3.1s9.4,1,13.1,3.1c3.7,2.1,6.6,5,8.5,8.8c2,3.8,3,8.3,3,13.4c0,5.1-1,9.6-3,13.4c-2,3.8-4.9,6.7-8.6,8.8
		s-8.1,3.1-13.1,3.1C188.4,76.9,184.1,75.9,180.4,73.8z M202.2,63.1c2.1-2.6,3.2-6.5,3.2-11.5c0-5-1.1-8.9-3.2-11.5
		c-2.1-2.6-5-3.9-8.7-3.9c-3.7,0-6.6,1.3-8.8,3.9c-2.1,2.6-3.1,6.4-3.1,11.5c0,5.1,1,8.9,3.1,11.5c2.1,2.6,5,3.9,8.8,3.9
		S200.1,65.7,202.2,63.1z"/>
	<path class="st12" d="M229.3,76.3V26.9h34.4V37H242v9.1h20.3v10.1H242v20.1H229.3z"/>
	<path class="st12" d="M286.2,76.3V37.3h-14.8V26.9H314v10.4h-14.8v38.9H286.2z"/>
</g>
</svg>
